<svg id="Capa_1" enable-background="new 0 0 512 512" height="512" viewBox="0 0 512 512" width="512" xmlns="http://www.w3.org/2000/svg"><g><path d="m478.6 197.2-37.661 235.814c-23.817 24.877-52.604 44.957-84.766 58.645-26.885 5.156-64.625 9.741-100.173 9.741-49.911 0-94.206-10.042-135.86-28.385-54.285-34.057-94.884-87.917-111.668-151.454l62.428-194.561 143.181-123.585c13.64-2.246 27.643-3.415 41.919-3.415 32.268 0 63.142 5.97 91.577 16.866z" fill="#9dc6fb"/><path d="m416.158 56.298c35.215 43.853 56.298 99.539 56.298 160.158 0 141.385-114.615 256-256 256-60.619 0-116.304-21.083-160.158-56.298 17.925 22.322 39.502 41.584 63.842 56.857 39.849 16.692 85.95 29.885 135.86 29.885 35.548 0 68.7-4.35 100.172-11.241 32.162-13.688 60.949-33.769 84.766-58.645 17.862-33.614 54.462-108.337 54.462-177.014 0-80.766-28.8-150.6-79.242-199.702z" fill="#80b4fb"/><path d="m355.715 202.726-50.994 18.56c-2.804 1.021-5.913.775-8.522-.673l-63.065-34.998c-2.584-1.434-5.66-1.689-8.445-.701l-21.088 7.485c-7.248 2.573-9.223 11.893-3.642 17.184l25.893 24.55c5.555 5.267 3.629 14.538-3.565 17.156l-37.774 13.749c-2.971 1.081-6.273.739-8.959-.929l-15.977-9.923c-2.685-1.668-5.988-2.01-8.959-.929l-34.031 12.386c-7.62 2.774-9.197 12.857-2.787 17.824l50.329 38.999c2.796 2.167 6.509 2.747 9.833 1.537l200.016-72.8c13.284-4.835 20.21-19.409 15.647-32.725-4.704-13.736-20.265-20.719-33.91-15.752z" fill="#f9f6f9"/><path d="m229.116 40.192-15.035-36.777c-121.444 20.004-214.081 125.476-214.081 252.585 0 22.664 2.944 44.635 8.472 65.561h14.047c7.883 0 15.09-4.454 18.616-11.505l21.188-42.377c1.445-2.89 2.197-6.077 2.197-9.308v-61.247c0-10.393 7.667-19.193 17.962-20.617l70.106-9.696c6.174-.854 11.64-4.43 14.896-9.744l60.114-98.126c3.462-5.651 4.026-12.614 1.518-18.749z" fill="#b3e59f"/><path d="m347.577 16.866v86.472c0 14.65 7.701 28.222 20.278 35.735l44.276 26.451c9.933 5.934 16.948 15.734 19.362 27.05l8.603 40.326c2.688 12.601-.61 25.737-8.933 35.573l-45.638 53.936c-6.36 7.516-9.849 17.043-9.849 26.888v19.929c0 14.368 7.41 27.72 19.602 35.322l45.662 28.467c44.019-45.978 71.06-108.336 71.06-177.015 0-109.114-68.272-202.286-164.423-239.134z" fill="#b3e59f"/><path d="m416.178 56.323c35.202 43.849 56.277 99.525 56.277 160.132 0 73.282-30.799 139.365-80.15 186.032.96.721 1.942 1.418 2.971 2.06l45.662 28.467c44.021-45.977 71.062-108.335 71.062-177.014 0-80.756-37.404-152.762-95.822-199.677z" fill="#95d6a4"/><path d="m256 512c35.547 0 69.399-7.251 100.166-20.345l-27.819-19.294c-5.748-3.986-10.005-9.772-12.103-16.444l-3.981-12.667c-2.692-8.565-8.909-15.574-17.091-19.269l-8.234-3.718c-7.182-3.244-12.888-9.061-15.993-16.305l-5.721-13.348c-4.965-11.586-16.357-19.097-28.962-19.097-11.564 0-22.198 6.334-27.706 16.502l-12.188 22.501c-3.81 7.034-10.153 12.355-17.742 14.885l-22.227 7.409c-6.286 2.095-11.751 6.118-15.619 11.498l-20.631 28.693c39.376 24.701 85.94 38.999 135.851 38.999z" fill="#b3e59f"/><path d="m316.244 455.917-1.013-3.223c-30.396 12.724-63.763 19.762-98.776 19.762-29.951 0-58.692-5.161-85.406-14.613l-10.91 15.172c39.375 24.701 85.95 38.985 135.861 38.985 35.547 0 69.406-7.247 100.172-20.341l-27.825-19.298c-5.748-3.986-10.006-9.771-12.103-16.444z" fill="#95d6a4"/><g><path d="m342.374 359.466h-15.61c-4.268 0-7.726-3.459-7.726-7.726s3.459-7.726 7.726-7.726h15.61c4.268 0 7.726 3.459 7.726 7.726.001 4.267-3.458 7.726-7.726 7.726z" fill="#b3e59f"/></g><g><path d="m321.561 392.767h-15.61c-4.268 0-7.726-3.459-7.726-7.726s3.459-7.726 7.726-7.726h15.61c4.268 0 7.726 3.459 7.726 7.726.001 4.267-3.458 7.726-7.726 7.726z" fill="#b3e59f"/></g></g></svg>